Coordinates
version=1
nRows=17
nColumns=40
inDegrees=yes

Units are S.I. units (second, meters, Newtons, ...)
Angles are in degrees.

endheader
time	pelvis_tilt	pelvis_list	pelvis_rotation	pelvis_tx	pelvis_ty	pelvis_tz	hip_flexion_r	hip_adduction_r	hip_rotation_r	knee_angle_r	knee_angle_r_beta	ankle_angle_r	subtalar_angle_r	mtp_angle_r	hip_flexion_l	hip_adduction_l	hip_rotation_l	knee_angle_l	knee_angle_l_beta	ankle_angle_l	subtalar_angle_l	mtp_angle_l	lumbar_extension	lumbar_bending	lumbar_rotation	arm_flex_r	arm_add_r	arm_rot_r	elbow_flex_r	pro_sup_r	wrist_flex_r	wrist_dev_r	arm_flex_l	arm_add_l	arm_rot_l	elbow_flex_l	pro_sup_l	wrist_flex_l	wrist_dev_l
     25.83750000	     -2.44730278	     -3.77256056	     -4.69616858	      1.01410883	      0.91417205	      0.40688165	     29.55241803	     -7.13261221	     -1.08994253	     69.33019187	     69.33019187	      3.64192033	    -19.57337927	     19.64072732	     18.77294096	     -0.18303606	     -0.54610421	     33.95012588	     33.95012588	     20.71562969	    -18.32252095	      7.90706997	    -11.40098515	      7.34654730	      3.38280007	      3.23401161	    -12.77341364	    -11.94573807	     20.12790063	     47.29815095	      0.00000000	      0.00000000	     25.17911840	    -13.37677915	     14.21657449	     40.51175081	     45.87743983	      0.00000000	      0.00000000
     25.85957143	     -2.57031017	     -3.90235480	     -5.47549015	      1.01427271	      0.91485985	      0.40746317	     30.28648396	     -6.42675256	     -0.83943954	     67.73691414	     67.73691414	      5.24143958	    -19.51728531	     19.24927968	     18.27213428	     -0.47958249	     -1.13345238	     33.56257176	     33.56257176	     20.97159475	    -18.30254481	      8.20130527	    -11.44311166	      7.60520339	      3.26621028	      0.24370027	    -12.50211510	    -12.00541597	     19.33621880	     47.31128819	      0.00000000	      0.00000000	     26.77612309	    -13.90802000	     13.48027879	     42.38180519	     45.98906322	      0.00000000	      0.00000000
     25.88164286	     -2.83809309	     -4.06348363	     -6.29524311	      1.01418672	      0.91604908	      0.40858436	     30.90834669	     -5.65017352	     -0.65424881	     65.27816929	     65.27816929	      6.36542233	    -19.42261618	     17.45273458	     17.77438719	     -0.87432463	     -1.79936265	     32.87018272	     32.87018272	     21.01364567	    -18.22179355	      8.28484788	    -11.39739188	      7.88205039	      2.79669183	     -2.78191150	    -12.16007228	    -12.20268954	     20.22593208	     47.26418537	      0.00000000	      0.00000000	     27.53411608	    -14.82045353	     11.64884787	     45.79455459	     46.21542027	      0.00000000	      0.00000000
     25.90371429	     -3.20907694	     -4.27819864	     -7.16824073	      1.01387306	      0.91779690	      0.41033802	     31.41706469	     -4.71096627	     -0.44444074	     62.08268367	     62.08268367	      7.60210782	    -19.23977967	     16.85222165	     17.19840127	     -1.37708655	     -2.50209176	     31.84018704	     31.84018704	     20.94800537	    -18.08576930	      8.47673978	    -11.17648843	      8.17446571	      2.47252859	     -5.00516762	    -11.81952375	    -12.21667466	     19.59506783	     47.26950937	      0.00000000	      0.00000000	     29.08063069	    -15.66190493	     11.04110485	     46.88950063	     46.29999829	      0.00000000	      0.00000000
     25.92578571	     -3.53699018	     -4.47399166	     -8.12254396	      1.01348022	      0.91996113	      0.41248694	     31.43736847	     -3.95338024	     -0.44605566	     57.81238864	     57.81238864	      6.87678209	    -18.98894231	     10.60209077	     16.39806478	     -1.92760302	     -3.47404134	     30.47470745	     30.47470745	     20.28769451	    -17.90696793	      7.26670194	    -11.24199105	      8.36117029	      2.29179791	     -7.91435626	    -11.54694456	    -12.47825964	     21.79811328	     47.15572811	      0.00000000	      0.00000000	     29.35032790	    -16.44940866	      8.05091317	     51.77031206	     46.63324429	      0.00000000	      0.00000000
     25.94785714	     -3.99902650	     -4.62726173	     -9.11531626	      1.01288388	      0.92223165	      0.41508186	     31.43217552	     -3.15804457	     -0.39674262	     53.03099075	     53.03099075	      6.40485628	    -18.38609264	      6.56845167	     15.64885280	     -2.45025680	     -4.47452798	     28.94151586	     28.94151586	     19.78449010	    -17.62105947	      6.72679067	    -11.08105413	      8.48175563	      2.52155795	    -10.12566987	    -11.22734979	    -12.38541826	     22.24415676	     47.09599996	      0.00000000	      0.00000000	     30.48931247	    -16.88608758	      6.37076340	     54.66978112	     46.82636041	      0.00000000	      0.00000000
     25.96992857	     -4.62409118	     -4.87715908	    -10.03528775	      1.01208552	      0.92439885	      0.41801409	     31.40740086	     -2.26107850	     -0.48964326	     47.94389021	     47.94389021	      6.78966192	    -16.84341033	      6.15923786	     15.09493964	     -3.07008581	     -5.27720442	     27.47455053	     27.47455053	     19.52359720	    -17.32624205	      6.96500743	    -10.65139301	      8.77286694	      2.25276472	    -11.41509520	    -10.95974481	    -12.42835247	     22.15097595	     47.08774546	      0.00000000	      0.00000000	     31.89432962	    -17.85302219	      5.75001732	     55.71151926	     46.90347300	      0.00000000	      0.00000000
     25.99200000	     -4.94580081	     -4.97188068	    -11.00695602	      1.01158476	      0.92665847	      0.42106162	     30.47906556	     -1.80897381	     -1.00900349	     41.69038381	     41.69038381	      4.04468659	    -15.33552755	     -3.06599340	     14.03731290	     -3.50674326	     -6.44833050	     25.65599555	     25.65599555	     18.38685192	    -17.06498477	      4.87135973	    -10.74021588	      8.80351066	      1.83735487	    -13.20250935	    -10.83838214	    -12.30677838	     24.86655260	     46.89546292	      0.00000000	      0.00000000	     31.77856135	    -18.65641717	      2.22025987	     60.82292946	     47.25786321	      0.00000000	      0.00000000
     26.01407143	     -5.36031578	     -5.02159747	    -11.94090804	      1.01097418	      0.92846633	      0.42437034	     29.80445753	     -1.35599935	     -1.65162534	     36.04322102	     36.04322102	      4.21626561	    -11.44886039	     -3.18358534	     13.22393159	     -3.88246826	     -7.48320626	     24.15205656	     24.15205656	     18.14555420	    -16.54193899	      4.90460541	    -10.59617810	      8.78412042	      2.06453136	    -14.21560141	    -10.56008274	    -12.41650686	     25.36757221	     46.86464604	      0.00000000	      0.00000000	     33.12881224	    -19.27387274	      1.47414244	     62.98801972	     47.35829269	      0.00000000	      0.00000000
     26.03614286	     -5.78148982	     -4.88954919	    -12.80000277	      1.01058241	      0.92957441	      0.42766999	     29.08020309	     -1.18047360	     -2.68662354	     30.53484480	     30.53484480	      4.23203816	     -6.64059777	     -3.17702653	     12.51176572	     -4.04388044	     -8.52950767	     22.74820451	     22.74820451	     17.72897563	    -16.07456811	      4.28281701	    -10.40390793	      8.63366640	      2.03412628	    -15.24884223	    -10.33917214	    -12.82461716	     27.10989817	     46.79576416	      0.00000000	      0.00000000	     33.75458682	    -19.94618113	     -0.00802627	     66.50161981	     47.52839475	      0.00000000	      0.00000000
     26.05821429	     -6.14074304	     -4.75736615	    -13.59254072	      1.01038186	      0.93011904	      0.43118753	     28.26771408	     -0.89692060	     -3.66482353	     25.37123667	     25.37123667	      4.25668773	     -1.86306364	     -1.96792259	     11.83846627	     -4.19515018	     -9.49911703	     21.56861158	     21.56861158	     17.27769195	    -15.71188464	      3.28253408	    -10.24968168	      8.48590825	      1.83088663	    -15.97531665	    -10.19375425	    -13.23166596	     29.24604489	     46.70675560	      0.00000000	      0.00000000	     34.18812313	    -20.67150362	     -1.79377191	     70.10038894	     47.71910679	      0.00000000	      0.00000000
     26.08028571	     -6.38959298	     -4.56711938	    -14.31391499	      1.01045813	      0.93012326	      0.43485323	     27.52640464	     -0.62136267	     -4.50044946	     21.00715726	     21.00715726	      4.72915394	      2.54591478	      1.16745774	     11.15729907	     -4.24896644	    -10.38508584	     20.58096427	     20.58096427	     16.77379880	    -15.54598150	      1.84277646	    -10.17610357	      8.28382842	      1.50814849	    -16.43328528	    -10.13217664	    -13.36236516	     31.66986268	     46.57315027	      0.00000000	      0.00000000	     34.52714075	    -21.36955617	     -3.74494651	     73.67508385	     47.91888667	      0.00000000	      0.00000000
     26.10235714	     -6.58284838	     -4.29002785	    -14.94113070	      1.01084051	      0.92963838	      0.43863039	     26.78838963	     -0.36652234	     -5.04321003	     17.14006215	     17.14006215	      4.43024982	      5.91900935	      2.52313168	     10.58237124	     -4.19378780	    -11.15926883	     19.92148150	     19.92148150	     16.87617907	    -15.20780950	      1.55817088	     -9.99964808	      7.98092920	      1.76448967	    -16.40316742	     -9.99168362	    -13.37030518	     32.26072334	     46.54273461	      0.00000000	      0.00000000	     35.80623903	    -21.60548555	     -4.19693901	     75.28301611	     47.98687588	      0.00000000	      0.00000000
     26.12442857	     -6.62699299	     -3.83210685	    -15.49914297	      1.01166230	      0.92871499	      0.44231561	     26.37258694	     -0.49919549	     -6.02541381	     14.63736408	     14.63736408	      4.76347269	      9.79212134	      4.54813743	      9.93692841	     -3.91307484	    -12.02426086	     19.36612341	     19.36612341	     16.86372143	    -14.79563311	      0.72120010	     -9.98487225	      7.51363197	      1.81763132	    -16.40051152	     -9.95823943	    -13.59951418	     34.04868372	     46.47136322	      0.00000000	      0.00000000	     36.56501713	    -21.96135599	     -5.27576900	     78.15403269	     48.11587093	      0.00000000	      0.00000000
     26.14650000	     -6.81144416	     -3.41383519	    -15.99008995	      1.01269695	      0.92733543	      0.44612192	     26.40109204	     -0.50788553	     -6.41531946	     13.21833089	     13.21833089	      5.45423349	     12.07767072	      7.62210282	      9.50141856	     -3.69133832	    -12.67360496	     18.90602565	     18.90602565	     16.62076738	    -14.79797115	     -0.73795306	     -9.80670589	      7.19385133	      1.25667752	    -16.41340659	    -10.05932740	    -13.70747698	     37.19712940	     46.32317960	      0.00000000	      0.00000000	     36.41661211	    -22.50312989	     -7.24251771	     81.71541050	     48.30724162	      0.00000000	      0.00000000
     26.16857143	     -6.86470756	     -2.99746267	    -16.36785586	      1.01426289	      0.92605905	      0.45007654	     26.21358304	     -0.52130054	     -6.42284320	     12.09199911	     12.09199911	      5.31253000	     13.35728742	      8.08116052	      8.91197281	     -3.40464408	    -13.14211803	     18.49126241	     18.49126241	     16.83459134	    -14.57787082	     -1.12718111	     -9.66716200	      6.87943227	      1.49049801	    -15.91389545	    -10.15756273	    -13.64994459	     38.16061111	     46.27751550	      0.00000000	      0.00000000	     37.22423727	    -22.50326691	     -7.78297875	     83.25680862	     48.37531585	      0.00000000	      0.00000000
     26.19064286	     -7.05019937	     -2.61327713	    -16.64303015	      1.01607544	      0.92438390	      0.45413693	     26.42974474	     -0.51306117	     -6.08486339	     11.90232639	     11.90232639	      5.25206159	     13.73582631	      8.07640601	      8.60310279	     -3.19644736	    -13.36802941	     18.37309522	     18.37309522	     17.20532591	    -14.61897509	     -1.31120630	     -9.26696766	      6.68869891	      1.57164139	    -15.15543707	    -10.34911114	    -13.68366808	     38.65816816	     46.26424714	      0.00000000	      0.00000000	     38.02131728	    -22.56345966	     -7.95745888	     83.82057376	     48.40203255	      0.00000000	      0.00000000
